<svg id="master-artboard" xmlns="http://www.w3.org/2000/svg" viewBox="0 0 61.46 76"><defs><style>.cls-1{fill:none;stroke-width:5px;}.cls-1,.cls-2{stroke:#0e3c54;stroke-miterlimit:10;}.cls-2{fill:#0e3b54;}</style></defs><title>icon-lapor</title><path class="cls-1" d="M39.48,25.81A4.48,4.48,0,0,1,35,30.28h0a4.48,4.48,0,0,1-4.48-4.48h0A4.48,4.48,0,0,1,35,21.33h0a4.48,4.48,0,0,1,4.48,4.48Z" transform="translate(-4.27 -2)"/><path class="cls-1" d="M54.9,25.81a4.48,4.48,0,0,1-4.48,4.48h0a4.48,4.48,0,0,1-4.48-4.48h0a4.48,4.48,0,0,1,4.48-4.48h0a4.48,4.48,0,0,1,4.48,4.48Z" transform="translate(-4.27 -2)"/><path class="cls-1" d="M60.33,5.1a8.17,8.17,0,0,0-2.81-.6h-45a8.21,8.21,0,0,0-2.81.6L7.37,7.39a8.2,8.2,0,0,0-.6,2.81V41.14a8.21,8.21,0,0,0,.6,2.81l2.29,2.29a8.21,8.21,0,0,0,2.81.6h9.68A3.62,3.62,0,0,1,24.58,48L34,59a1.21,1.21,0,0,0,1.9,0l9.38-11a3.62,3.62,0,0,1,2.42-1.12h9.87a8.24,8.24,0,0,0,2.81-.6l2.29-2.29a8.21,8.21,0,0,0,.6-2.81V10.2a8.21,8.21,0,0,0-.6-2.81Z" transform="translate(-4.27 -2)"/><path class="cls-1" d="M24.06,25.81a4.48,4.48,0,0,1-4.48,4.48h0a4.48,4.48,0,0,1-4.48-4.48h0a4.48,4.48,0,0,1,4.48-4.48h0a4.48,4.48,0,0,1,4.48,4.48Z" transform="translate(-4.27 -2)"/><path class="cls-2" d="M18.11,74.34H8.42V73.21h1.91V63.62H8.42V62.49H14v1.13h-1.8v9.59h4.45V69.42h1.47Zm3.5-1.8a.83.83,0,0,0,.92.88,2.22,2.22,0,0,0,1.08-.31,3,3,0,0,0,.92-.79,1.5,1.5,0,0,0,.36-.91V69.75a6.36,6.36,0,0,1-1.16.89,10.43,10.43,0,0,1-1.08.58,2.17,2.17,0,0,0-.73.52,1.13,1.13,0,0,0-.31.81m7.75-.67a4.74,4.74,0,0,1-.16,1.33,1.79,1.79,0,0,1-.48.83,1.92,1.92,0,0,1-.69.4,2.79,2.79,0,0,1-.87.12,2.34,2.34,0,0,1-1-.21,1.93,1.93,0,0,1-.79-.66,2.29,2.29,0,0,1-.39-1.1A3.06,3.06,0,0,1,23.86,74a3,3,0,0,1-1.75.56A2.36,2.36,0,0,1,20.54,74a1.91,1.91,0,0,1-.4-2.28,2,2,0,0,1,.56-.65,7.44,7.44,0,0,1,1.7-.9q.46-.17.91-.37t.79-.41a1.87,1.87,0,0,0,.56-.5,1.09,1.09,0,0,0,.22-.66,1.79,1.79,0,0,0-.44-1.33,1.69,1.69,0,0,0-1.24-.44,3.22,3.22,0,0,0-1.06.17,1.81,1.81,0,0,0-.78.48,1.13,1.13,0,0,1,.8.28.83.83,0,0,1,.3.64,1.07,1.07,0,0,1-.32.81,1.09,1.09,0,0,1-.77.31,1.16,1.16,0,0,1-.81-.32,1.24,1.24,0,0,1-.35-.95,1.46,1.46,0,0,1,.21-.7,3.07,3.07,0,0,1,.6-.73,3.13,3.13,0,0,1,1.05-.58,4.9,4.9,0,0,1,2.65-.09,3,3,0,0,1,1,.46,2.08,2.08,0,0,1,.67.89,3.41,3.41,0,0,1,.24,1.33v3.62a2.14,2.14,0,0,0,.08.59,1.15,1.15,0,0,0,.3.5.73.73,0,0,0,.56.23q1,0,1-1.4V70.86h.85ZM38.07,70a5.27,5.27,0,0,0-.24-1.61,2.92,2.92,0,0,0-.72-1.24,1.55,1.55,0,0,0-1.14-.5,1.75,1.75,0,0,0-1.53,1,4.81,4.81,0,0,0-.59,2.51A6.29,6.29,0,0,0,34,71.39a5.06,5.06,0,0,0,.36,1.12,2.16,2.16,0,0,0,.67.83,1.59,1.59,0,0,0,1,.32,1.53,1.53,0,0,0,1-.32,2.15,2.15,0,0,0,.65-.87,5.15,5.15,0,0,0,.36-1.17,6.85,6.85,0,0,0,.12-1.3m-4.15-2.75A3.06,3.06,0,0,1,35,66.07a2.79,2.79,0,0,1,1.48-.4,2.85,2.85,0,0,1,1.77.59,3.81,3.81,0,0,1,1.2,1.61,5.71,5.71,0,0,1,.42,2.23,5.08,5.08,0,0,1-1,3.21,3.13,3.13,0,0,1-2.61,1.25A2.68,2.68,0,0,1,35,74.22a2.91,2.91,0,0,1-1-.93v3.25H35.7v1H30.42v-.95h1.85V66.78H30.75V65.9l3.17-.23Zm13.53-.16-.26-.24a1.63,1.63,0,0,0-1-.24,1.87,1.87,0,0,0-1.31.48,2.69,2.69,0,0,0-.76,1.28,6.52,6.52,0,0,0-.24,1.85,4.22,4.22,0,0,0,.62,2.43,2,2,0,0,0,1.7.91,1.9,1.9,0,0,0,1.67-.92,4.32,4.32,0,0,0,.6-2.42,6.73,6.73,0,0,0-.23-1.85,2.71,2.71,0,0,0-.75-1.28m-1.29,7.47a3.84,3.84,0,0,1-3-1.26A4.62,4.62,0,0,1,42,70.12a5.2,5.2,0,0,1,.48-2.26,3.79,3.79,0,0,1,1.42-1.6,4.11,4.11,0,0,1,2.2-.58,4.24,4.24,0,0,1,1.73.34,3.6,3.6,0,0,1,1.3.94,4.19,4.19,0,0,1,.79,1.4,5.33,5.33,0,0,1,.28,1.76,5.17,5.17,0,0,1-.48,2.25A3.76,3.76,0,0,1,48.34,74,4,4,0,0,1,46.15,74.56Zm10.74-.22h-5v-.88h1.54V66.78H51.89V65.9l3-.13.21,1.84a3.13,3.13,0,0,1,.27-.64,3.65,3.65,0,0,1,.44-.62,2.07,2.07,0,0,1,1.56-.67,1.75,1.75,0,0,1,1.1.35,1.19,1.19,0,0,1,.46,1,1.24,1.24,0,0,1-.36,1,1.19,1.19,0,0,1-.85.34,1.17,1.17,0,0,1-.79-.28,1,1,0,0,1-.33-.77.8.8,0,0,1,.08-.34,1,1,0,0,1,.15-.27l.09-.09a1.28,1.28,0,0,0-.83.3,1.94,1.94,0,0,0-.56.79,4.92,4.92,0,0,0-.3,1,6.19,6.19,0,0,0-.1,1.13v3.65H56.9Z" transform="translate(-4.27 -2)"/></svg>