<?xml version="1.0" encoding="utf-8"?>
<svg id="master-artboard" viewBox="0 0 474.63287353515625 456.0958251953125" version="1.1" xmlns="http://www.w3.org/2000/svg" x="0px" y="0px" style="enable-background:new 0 0 1096 780;" width="474.63287353515625px" height="456.0958251953125px"><rect id="ee-background" x="0" y="0" width="474.63287353515625" height="456.0958251953125" style="fill: white; fill-opacity: 0; pointer-events: none;"/>





<g transform="matrix(1.4202780723571777, 0, 0, 1.4202780723571777, -4.705078125, -163.3275318145752)">
	
		
	
<g>
		
		<path class="st2" d="M233,146.3c33.5,0,60.7,27.2,60.7,60.7v77.2c0,33.5-27.2,60.7-60.7,60.7h-76.6l-44.8,32.4v-32.4&#10;&#9;&#9;&#9;c-33.5,0-60.7-27.2-60.7-60.7V207c0-33.5,27.2-60.7,60.7-60.7H233 M233,126.3H111.6c-44.5,0-80.7,36.2-80.7,80.7v77.2&#10;&#9;&#9;&#9;c0,37.6,25.8,69.3,60.7,78.2v14.9v39.1l31.7-22.9l39.6-28.6H233c44.5,0,80.7-36.2,80.7-80.7V207&#10;&#9;&#9;&#9;C313.7,162.5,277.5,126.3,233,126.3L233,126.3z" style="fill: rgb(0, 0, 0);"/>
	</g></g>




<g transform="matrix(1.4202780723571777, 0, 0, 1.4202780723571777, -4.705078125, -163.3275318145752)">
	<path d="M 113.599998 211.600006 L 231.100006 211.600006" class="st8" style="fill: none; stroke: rgb(0, 0, 0); stroke-width: 20; stroke-linecap: round; stroke-miterlimit: 10;"/>
	<path d="M 113.599998 258.799988 L 231.100006 258.799988" class="st8" style="fill: none; stroke: rgb(0, 0, 0); stroke-width: 20; stroke-linecap: round; stroke-miterlimit: 10;"/>
<path d="M -136.58004760742188 373.96319580078125" style="fill-opacity: 1; stroke: rgb(0, 0, 0); stroke-opacity: 1; stroke-width: 20; paint-order: stroke;"/></g>








</svg>